<svg xmlns="http://www.w3.org/2000/svg" width="200" viewBox="0 0 171.72 32"><defs><style>.cls-1{font-size:22.44px;font-family:ArialRoundedMTBold, Arial Rounded MT Bold;}.cls-1,.cls-3{fill:#fff;}.cls-2{fill:#3c50e0;}.cls-4{opacity:0.9;}.cls-5{opacity:0.7;}</style></defs><g id="Layer_2" data-name="Layer 2"><g id="Layer_2-2" data-name="Layer 2"><text class="cls-1" transform="translate(43.37 25.26)">BRS ADMIN</text></g><g id="Layer_1-2" data-name="Layer 1"><path class="cls-2" d="M0,8.42A8.42,8.42,0,0,1,8.42,0H23.58A8.42,8.42,0,0,1,32,8.42V23.58A8.42,8.42,0,0,1,23.58,32H8.42A8.42,8.42,0,0,1,0,23.58Z"/><path class="cls-3" d="M8.42,8.42a1.69,1.69,0,0,1,1.69-1.68h0a1.68,1.68,0,0,1,1.68,1.68V23.58a1.68,1.68,0,0,1-1.68,1.68h0a1.69,1.69,0,0,1-1.69-1.68Z"/><g class="cls-4"><path class="cls-3" d="M14.74,15.16a1.69,1.69,0,0,1,1.68-1.69h0a1.69,1.69,0,0,1,1.69,1.69v8.42a1.69,1.69,0,0,1-1.69,1.68h0a1.68,1.68,0,0,1-1.68-1.68Z"/></g><g class="cls-5"><path class="cls-3" d="M21.05,11a1.69,1.69,0,0,1,1.69-1.69h0A1.69,1.69,0,0,1,24.42,11V23.58a1.68,1.68,0,0,1-1.68,1.68h0a1.69,1.69,0,0,1-1.69-1.68Z"/></g></g></g></svg>